<svg xmlns="http://www.w3.org/2000/svg" width="48" height="48" id="playing-casual-game"><path d="M24 15H12a1 1 0 1 1 0-2h12a1 1 0 1 1 0 2zm12-3H24a1 1 0 1 1 0-2h12a1 1 0 1 1 0 2zm-6 8c-1.654 0-3-1.346-3-3s1.346-3 3-3 3 1.346 3 3-1.346 3-3 3zm0-4a1.001 1.001 0 0 0 0 2 1.001 1.001 0 0 0 0-2zm-14-5a.999.999 0 0 1-.707-1.707l4-4a.999.999 0 1 1 1.414 1.414l-4 4A.997.997 0 0 1 16 11z"></path><path d="M20 11a.997.997 0 0 1-.707-.293l-4-4a.999.999 0 1 1 1.414-1.414l4 4A.999.999 0 0 1 20 11zm4 13a1 1 0 0 1-1-1V2a1 1 0 1 1 2 0v21a1 1 0 0 1-1 1z"></path><path d="M37 24H11V3c0-1.103.897-2 2-2h22c1.103 0 2 .897 2 2v21zm-24-2h22V3H13v19zm2 12c-2.206 0-4-1.794-4-4s1.794-4 4-4 4 1.794 4 4-1.794 4-4 4zm0-6c-1.103 0-2 .897-2 2s.897 2 2 2 2-.897 2-2-.897-2-2-2zm18 6c-2.206 0-4-1.794-4-4s1.794-4 4-4 4 1.794 4 4-1.794 4-4 4zm0-6c-1.103 0-2 .897-2 2s.897 2 2 2 2-.897 2-2-.897-2-2-2z"></path><path d="M38.989 46c-.158 0-.317-.007-.477-.022-2.53-.243-4.512-2.504-4.512-5.15V38H14v3a5.013 5.013 0 0 1-1.637 3.7 5.041 5.041 0 0 1-3.851 1.277C5.982 45.735 4 43.474 4 40.828V31c0-4.962 4.037-9 9-9h22c4.963 0 9 4.038 9 9v10a5.013 5.013 0 0 1-1.637 3.7 5.02 5.02 0 0 1-3.374 1.3zM14 36h20c1.103 0 2 .897 2 2v2.828c0 1.626 1.187 3.013 2.702 3.158a2.97 2.97 0 0 0 2.315-.766A3.004 3.004 0 0 0 42 41V31c0-3.86-3.141-7-7-7H13c-3.859 0-7 3.14-7 7v9.828c0 1.626 1.187 3.013 2.702 3.158A3.004 3.004 0 0 0 12 41v-3c0-1.103.897-2 2-2z"></path><path fill="none" d="M0 0h48v48H0z"></path></svg>